# xmcd
#
# Track frame offsets: 
#        150
#        13143
#        25968
#        39337
#        57187
#        69787
#        88012
#        103237
#        121368
#        135393
#        153056
#        172031
#        194756
#
# Disc length: 2803 seconds
#
# Revision: 0
# Processed by: cddbd v1.5.2PL0 Copyright (c) Steve Scherf et al.
# Submitted via: ExactAudioCopy v0.95b3
#
DISCID=a90af10d
DTITLE=Deep River Quartet - Old Skool Harmony-Live
DYEAR=2006
DGENRE=Swing
TTITLE0=Blueberry Hill
TTITLE1=Into each life some rain must fall
TTITLE2=Joshua fit the battle round jericho
TTITLE3=Bring it on home to me
TTITLE4=60 minute man
TTITLE5=Peace in the valley
TTITLE6=Little Sister
TTITLE7=Ain't no sunshine
TTITLE8=Dry bones
TTITLE9=I cover the waterfront
TTITLE10=Go like eliah
TTITLE11=Wade in the water
TTITLE12=Swing Low
EXTD=
EXTT0=
EXTT1=
EXTT2=
EXTT3=
EXTT4=
EXTT5=
EXTT6=
EXTT7=
EXTT8=
EXTT9=
EXTT10=
EXTT11=
EXTT12=
PLAYORDER=
